<?xml version="1.0" encoding="UTF-8" standalone="no"?>
<svg
   version="1.1"
   width="128"
   height="128"
   id="svg20"
   sodipodi:docname="mdedit_color.svg"
   inkscape:version="1.4 (86a8ad7, 2024-10-11)"
   inkscape:export-filename="mdedit_color.png"
   inkscape:export-xdpi="96"
   inkscape:export-ydpi="96"
   xmlns:inkscape="http://www.inkscape.org/namespaces/inkscape"
   xmlns:sodipodi="http://sodipodi.sourceforge.net/DTD/sodipodi-0.dtd"
   xmlns="http://www.w3.org/2000/svg"
   xmlns:svg="http://www.w3.org/2000/svg">
  <defs
     id="defs20" />
  <sodipodi:namedview
     id="namedview20"
     pagecolor="#ffffff"
     bordercolor="#000000"
     borderopacity="0.25"
     inkscape:showpageshadow="2"
     inkscape:pageopacity="0.0"
     inkscape:pagecheckerboard="0"
     inkscape:deskcolor="#d1d1d1"
     showgrid="true"
     inkscape:zoom="5.5"
     inkscape:cx="61.363636"
     inkscape:cy="63.181818"
     inkscape:window-width="1920"
     inkscape:window-height="991"
     inkscape:window-x="-9"
     inkscape:window-y="-9"
     inkscape:window-maximized="1"
     inkscape:current-layer="svg20">
    <inkscape:grid
       id="grid20"
       units="px"
       originx="0"
       originy="0"
       spacingx="1"
       spacingy="1"
       empcolor="#0099e5"
       empopacity="0.30196078"
       color="#0099e5"
       opacity="0.14901961"
       empspacing="5"
       enabled="true"
       visible="true" />
  </sodipodi:namedview>
  <path
     d="M 72.115176,28.761534 V 100.38922 H 66.435653 L 66.413642,28.758308 Z"
     fill="#13539b"
     id="path4"
     sodipodi:nodetypes="ccccc"
     style="stroke-width:0.179331" />
  <g
     id="g20"
     transform="matrix(1.134386,0,0,1.134386,-14.403225,-8.2653486)">
    <path
       d="M 118.45154,49.942461 97.475857,84.351151 82.690916,75.763557 104.13084,41.02888 Z"
       fill="#feb00c"
       id="path2"
       sodipodi:nodetypes="ccccc"
       style="stroke-width:0.15646" />
    <path
       d="m 110.70213,49.94705 5.60825,3.516954 L 97.475857,84.351151 91.222974,80.5348 Z"
       fill="#fe8900"
       id="path5"
       sodipodi:nodetypes="ccccc"
       style="stroke-width:0.15646" />
    <path
       d="m 116.45977,35.335265 2.53469,1.625677 -6.1019,9.544 -8.76172,-5.476062 2.27905,-3.927368 c 2.91664,-5.033252 5.57251,-4.707822 10.04988,-1.766247 z"
       fill="#fe4f34"
       id="path7"
       sodipodi:nodetypes="cccccc"
       style="stroke-width:0.15646" />
    <path
       d="m 82.695947,75.762797 8.527027,4.772003 -5.888107,9.452378 -4.051841,-2.310567 c 0.34543,-3.988463 0.832399,-7.954701 1.412921,-11.913814 z"
       fill="#fee14e"
       id="path8"
       sodipodi:nodetypes="ccccc"
       style="stroke-width:0.15646" />
    <path
       d="m 118.99446,36.960942 c 0,0 0.53511,0.377504 0.80647,0.560703 2.89426,1.953874 3.39297,4.447985 1.542,7.776145 -0.88863,1.597808 -2.89868,4.656303 -2.89868,4.656303 l -5.55169,-3.449151 c 1.1906,-1.921487 1.72219,-2.660734 6.1019,-9.544 z"
       fill="#ec462b"
       id="path9"
       sodipodi:nodetypes="cssccc"
       style="stroke-width:0.15646" />
    <path
       d="m 91.222974,80.5348 6.252883,3.816351 -9.642074,7.057557 -2.524234,-1.42153 c 1.749274,-3.183466 3.923919,-6.41638 5.913425,-9.452378 z"
       fill="#feb00c"
       id="path10"
       sodipodi:nodetypes="ccccc"
       style="stroke-width:0.15646" />
    <path
       d="m 104.13084,41.02888 8.76172,5.476062 -2.19043,3.442108 -8.76115,-5.364655 z"
       fill="#fee150"
       id="path11"
       sodipodi:nodetypes="ccccc"
       style="stroke-width:0.15646" />
    <path
       d="m 81.287816,87.653691 6.571285,3.755017 -5.820008,3.911478 c -0.888685,0.471097 -1.830672,-0.110745 -1.690031,-1.095214 z"
       fill="#14529b"
       id="path13"
       sodipodi:nodetypes="cccsc"
       style="stroke-width:0.15646" />
  </g>
  <g
     id="g1"
     transform="matrix(1.0280373,0,0,1.0280373,-0.49954789,-0.80630624)">
    <path
       d="m 11.234745,30.577255 h 42.090124 c 2.772309,0 6.551,1.674043 6.551,6.387845 v 52.829225 c 0,4.742733 -3.854933,6.042558 -6.551,6.042558 H 11.398514 c -2.6400354,0 -6.5509938,-1.084025 -6.5509938,-6.042558 V 36.9651 c 0,-4.992428 3.8026471,-6.387845 6.3872248,-6.387845 z"
       fill="#0c9f45"
       id="path1"
       sodipodi:nodetypes="sssssssss"
       style="stroke-width:0.168154" />
    <path
       d="m 13.397824,38.777578 7.459458,0.01685 c 1.089905,0.0059 1.578504,0.190136 2.669294,1.645136 l 9.084221,11.946514 9.85284,-12.920051 c 0.419581,-0.560324 1.006097,-0.64612 1.648052,-0.649264 l 7.985669,-0.01725 c 1.09648,0.09766 1.200474,0.784919 1.210607,1.70313 0.0021,8.575153 0.04433,17.15183 -0.01974,25.727234 -0.0028,1.274968 -0.06028,1.701761 -1.411944,1.705536 -2.268262,-0.0062 -4.537109,0.02216 -6.805301,5.4e-5 -1.34937,-0.0037 -1.42278,-0.309822 -1.419726,-2.038353 -2.9e-5,-0.0029 -0.03073,-3.541187 -0.09806,-13.566723 L 33.868585,64.64077 c -0.598888,0.733728 -1.759596,0.71046 -2.471275,0 l -9.942598,-12.310377 -0.09724,14.002534 c -0.01993,1.171359 -0.03401,1.59871 -1.420469,1.602582 l -6.805291,5.3e-5 c -1.034499,-0.0027 -1.408257,-0.167749 -1.412004,-1.697788 1.68e-4,-8.516021 -0.03459,-17.03206 -0.01963,-25.548096 -0.02141,-1.163062 0.500606,-1.871823 1.697659,-1.912172 z"
       fill="#fdfef9"
       id="path3"
       sodipodi:nodetypes="cccccccccccccccccccccc"
       style="stroke-width:0.172646" />
    <path
       d="m 29.425574,70.563765 7.252491,10e-4 c 0.733714,0.08645 0.960473,0.627477 0.972528,1.276432 l 0.09795,6.213094 4.64164,-0.05262 c 1.099512,0.03105 2.530115,0.722454 0.708593,2.814934 l -8.23281,9.29707 c -1.300273,1.165419 -2.179176,0.977792 -3.039957,0.280565 l -9.648025,-9.577635 c -1.59178,-1.466259 -0.498889,-2.770957 0.92531,-2.814934 l 4.804511,0.05262 0.103805,-6.581328 c 0.168245,-0.792984 0.677186,-0.907348 1.413916,-0.909405 z"
       fill="#fcfef8"
       id="path6"
       sodipodi:nodetypes="ccccccccccccc"
       style="stroke-width:0.172646" />
  </g>
</svg>
