<?xml version="1.0" encoding="UTF-8" standalone="no"?>
<!-- Created with Inkscape (http://www.inkscape.org/) -->

<svg
   width="128"
   height="128"
   viewBox="0 0 128 128"
   version="1.1"
   id="svg1"
   xml:space="preserve"
   inkscape:version="1.4 (86a8ad7, 2024-10-11)"
   sodipodi:docname="mdedit_bw.svg"
   inkscape:export-filename="mdedit-32-light-theme.png"
   inkscape:export-xdpi="192"
   inkscape:export-ydpi="192"
   xmlns:inkscape="http://www.inkscape.org/namespaces/inkscape"
   xmlns:sodipodi="http://sodipodi.sourceforge.net/DTD/sodipodi-0.dtd"
   xmlns="http://www.w3.org/2000/svg"
   xmlns:svg="http://www.w3.org/2000/svg"><sodipodi:namedview
     id="namedview1"
     pagecolor="#ffffff"
     bordercolor="#000000"
     borderopacity="0.25"
     inkscape:showpageshadow="2"
     inkscape:pageopacity="0.0"
     inkscape:pagecheckerboard="0"
     inkscape:deskcolor="#d1d1d1"
     inkscape:document-units="px"
     showgrid="true"
     inkscape:zoom="5.6575"
     inkscape:cx="53.82236"
     inkscape:cy="63.543968"
     inkscape:window-width="1920"
     inkscape:window-height="991"
     inkscape:window-x="-9"
     inkscape:window-y="-9"
     inkscape:window-maximized="1"
     inkscape:current-layer="layer1"><inkscape:grid
       id="grid1"
       units="px"
       originx="-0.63488871"
       originy="-3.48438"
       spacingx="1"
       spacingy="1"
       empcolor="#0099e5"
       empopacity="0.30196078"
       color="#0099e5"
       opacity="0.14901961"
       empspacing="5"
       enabled="true"
       visible="true" /></sodipodi:namedview><defs
     id="defs1" /><g
     inkscape:label="Layer 1"
     inkscape:groupmode="layer"
     id="layer1"
     transform="translate(-0.6348887,-3.4843801)"><path
       style="fill:#000000;stroke-width:0.189564"
       d="m 66.47825,29.644344 h 6.25552 V 105.65845 H 66.47825 Z M 77.808685,100.93406 80.767138,82.62672 103.38226,45.501833 117.91267,54.636358 95.130739,91.573171 81.19351,102.98092 c -1.566437,1.28215 -3.975997,0.51514 -3.384825,-2.04686 z m -46.879756,-0.59001 c 0,0.12791 -12.718448,-13.236262 -13.174521,-13.744887 -0.456075,-0.508626 -0.284188,-1.007478 0.22748,-1.023865 l 8.113738,-0.259863 v -4.693296 -5.000878 h 11.37526 v 4.932477 4.761672 l 8.286198,0.25711 c 0.555036,0.01751 0.502622,0.690272 0.242008,0.986521 -0.260614,0.296307 -12.517696,13.220207 -13.186901,13.765819 -0.669206,0.54558 -1.275569,0.53449 -1.883262,0.0192 -0.607693,-0.515312 0,-0.12787 0,-3e-5 z M 5.0538016,38.087471 H 18.886228 l 12.516605,16.65774 12.734818,-16.662252 14.277665,0.09933 V 73.494655 L 46.524365,73.490574 46.283353,52.506855 32.550198,70.179731 c -0.537425,0.6916 -1.466849,0.639984 -1.947786,0.0041 L 17.37524,52.694225 17.182193,73.496677 5.1687218,73.495426 Z m 100.6065084,3.495676 4.28422,-7.140959 c 0.98298,-1.638424 6.11358,-2.608068 10.41611,0.161338 4.30254,2.769406 5.32484,6.926691 4.35656,8.533253 l -4.65023,7.715625 z"
       id="path1"
       sodipodi:nodetypes="ccccccccccscsccccszzzzscsssccssccccscsssccszscc" /></g></svg>
